<svg width="180" height="48" viewBox="0 0 180 48" fill="none" xmlns="http://www.w3.org/2000/svg">
<path fill-rule="evenodd" clip-rule="evenodd" d="M24.502 4.59016C30.2569 -1.74128 39.1503 -1.53114 44.6945 5.27464C47.8764 9.18397 49.2944 14.4234 48.9494 19.5156C48.983 19.9655 49 20.4178 49 20.8718C49 36.2051 31.85 43.2821 19.6 48L19.6 39.7436C14.4018 39.7436 9.41642 37.7553 5.7407 34.2162C2.06499 30.677 -1.13112e-06 25.8769 -9.12336e-07 20.8718C-8.92463e-07 20.4172 0.0170394 19.9642 0.0507766 19.5137C-0.294758 14.4172 1.12333 9.17459 4.30458 5.27464C9.85373 -1.52213 18.7299 -1.75029 24.502 4.59016Z" fill="#FF5777"/>
<path d="M12.9999 12V31H22.9999" stroke="#F1F6F6" stroke-width="4" stroke-linecap="round" stroke-linejoin="round"/>
<path d="M29 31V12H39" stroke="#202020" stroke-width="4" stroke-linecap="round" stroke-linejoin="round"/>
<path d="M55.1 11.02H59.45V27.22H66.65V31H55.1V11.02ZM76.8005 31.45C74.3005 31.45 72.3305 30.73 70.8905 29.29C69.4705 27.85 68.7605 25.85 68.7605 23.29C68.7605 21.63 69.0705 20.19 69.6905 18.97C70.3105 17.73 71.1805 16.78 72.3005 16.12C73.4405 15.46 74.7705 15.13 76.2905 15.13C78.5305 15.13 80.2505 15.85 81.4505 17.29C82.6505 18.73 83.2505 20.81 83.2505 23.53C83.2505 23.99 83.2405 24.33 83.2205 24.55H73.0205C73.2205 25.61 73.6805 26.42 74.4005 26.98C75.1205 27.52 76.0905 27.79 77.3105 27.79C78.0505 27.79 78.8205 27.7 79.6205 27.52C80.4205 27.32 81.1205 27.06 81.7205 26.74L82.4105 30.13C81.6105 30.55 80.7205 30.87 79.7405 31.09C78.7805 31.33 77.8005 31.45 76.8005 31.45ZM79.2005 21.37C79.1405 20.51 78.8405 19.83 78.3005 19.33C77.7605 18.81 77.0405 18.55 76.1405 18.55C75.2805 18.55 74.5705 18.8 74.0105 19.3C73.4705 19.8 73.1305 20.49 72.9905 21.37H79.2005ZM92.0848 31.45C90.6448 31.45 89.5248 31.09 88.7248 30.37C87.9448 29.63 87.5548 28.59 87.5548 27.25V19.18H85.1548V15.55H87.5548V12.25C88.9748 12.01 90.3748 11.83 91.7548 11.71V15.55H95.6548V19.18H91.7548V26.47C91.7548 26.89 91.8748 27.21 92.1148 27.43C92.3748 27.65 92.7348 27.76 93.1948 27.76C93.7548 27.76 94.3948 27.63 95.1148 27.37L96.0448 30.55C94.7648 31.15 93.4448 31.45 92.0848 31.45ZM98.4418 18.82C99.3418 17.68 99.9518 16.69 100.272 15.85L98.5318 13.24C98.5318 12.78 98.6518 12.33 98.8918 11.89C99.1518 11.43 99.5118 11.06 99.9718 10.78C100.432 10.5 100.952 10.36 101.532 10.36C102.392 10.36 103.122 10.67 103.722 11.29C104.322 11.89 104.622 12.66 104.622 13.6C104.622 14.7 104.182 15.95 103.302 17.35C102.422 18.75 101.042 20.11 99.1618 21.43L98.4418 18.82ZM112.682 31.45C111.702 31.45 110.752 31.35 109.832 31.15C108.932 30.95 108.162 30.68 107.522 30.34L107.912 26.74C108.592 27.16 109.342 27.5 110.162 27.76C110.982 28.02 111.752 28.15 112.472 28.15C113.152 28.15 113.722 28.03 114.182 27.79C114.642 27.53 114.872 27.16 114.872 26.68C114.872 26.3 114.712 26.01 114.392 25.81C114.072 25.59 113.462 25.32 112.562 25L111.752 24.7C110.892 24.38 110.192 24.08 109.652 23.8C109.112 23.5 108.622 23.05 108.182 22.45C107.742 21.85 107.522 21.06 107.522 20.08C107.522 18.52 108.102 17.31 109.262 16.45C110.442 15.57 111.972 15.13 113.852 15.13C115.332 15.13 116.892 15.42 118.532 16L117.962 19.57C117.382 19.23 116.722 18.96 115.982 18.76C115.262 18.54 114.582 18.43 113.942 18.43C113.282 18.43 112.752 18.54 112.352 18.76C111.972 18.98 111.782 19.3 111.782 19.72C111.782 20.12 111.942 20.42 112.262 20.62C112.582 20.82 113.122 21.05 113.882 21.31C114.482 21.53 114.832 21.66 114.932 21.7C115.772 22.04 116.472 22.37 117.032 22.69C117.592 23.01 118.082 23.49 118.502 24.13C118.922 24.75 119.132 25.55 119.132 26.53C119.132 28.17 118.542 29.4 117.362 30.22C116.182 31.04 114.622 31.45 112.682 31.45ZM126.684 14.8H121.224V11.02H136.464V14.8H131.064V31H126.684V14.8ZM141.393 31.45C139.793 31.45 138.523 30.77 137.583 29.41C136.643 28.05 136.173 26.2 136.173 23.86C136.173 21.02 136.893 18.86 138.333 17.38C139.773 15.88 141.843 15.13 144.543 15.13C146.063 15.13 147.843 15.37 149.883 15.85V31H145.863L145.953 28.54H145.833C145.313 29.48 144.673 30.2 143.913 30.7C143.173 31.2 142.333 31.45 141.393 31.45ZM142.293 27.76C142.913 27.76 143.523 27.43 144.123 26.77C144.723 26.11 145.283 25.23 145.803 24.13V19.09C145.163 18.91 144.523 18.82 143.883 18.82C142.683 18.82 141.773 19.23 141.153 20.05C140.553 20.87 140.253 22.08 140.253 23.68C140.253 24.94 140.433 25.94 140.793 26.68C141.153 27.4 141.653 27.76 142.293 27.76ZM152.785 27.37H155.515V12.7H152.935V9.1H159.745V27.37H162.475V31H152.785V27.37ZM169.483 24.28V31H165.253V9.07H169.483V21.19L174.313 15.55H179.323L173.143 22.48L179.653 30.82L175.063 31.45L169.483 24.28Z" fill="black"/>
</svg>
